<svg width="512" height="512" viewBox="90 195 330 330" fill="none" xmlns="http://www.w3.org/2000/svg">
<path d="M317.985 357.933L241.149 224.838C238.714 220.608 234.199 218 229.33 218H180.929L209.01 266.606H160.643C155.74 266.606 151.224 269.215 148.79 273.444L100 357.933H148.402C153.306 357.933 157.821 355.325 160.255 351.095L209.01 266.642L257.765 351.095C260.199 355.325 264.715 357.933 269.618 357.933H318.02H317.985Z" fill="#FF6A13"/>
<path d="M219.382 426.878L373.16 426.948C378.064 426.948 382.579 424.34 385.014 420.11L409.215 378.236H353.052L377.252 336.362C379.687 332.132 379.687 326.915 377.252 322.686L328.392 238.268L304.191 280.142C301.757 284.371 301.757 289.588 304.191 293.818L353.016 378.236H255.436C250.533 378.201 246.017 380.809 243.583 385.039L219.382 426.913V426.878Z" fill="#FF6A13"/>
<path d="M208.94 307.071L131.998 440.095C129.563 444.325 129.563 449.542 131.998 453.771L156.198 495.646L184.315 447.039L208.516 488.913C210.95 493.143 215.466 495.751 220.37 495.751H317.985L293.784 453.842C291.35 449.612 286.834 447.004 281.931 447.004H184.351L233.176 362.621C235.61 358.391 235.61 353.175 233.176 348.945L208.975 307.071H208.94Z" fill="#FF6A13"/>
</svg>
