<svg width="1020" height="340" viewBox="90 210 1020 340" fill="none" xmlns="http://www.w3.org/2000/svg">
<g clip-path="url(#clip0_71_1430)">
<path d="M317.985 357.933L241.149 224.838C238.714 220.608 234.199 218 229.33 218H180.929L209.01 266.606H160.643C155.74 266.606 151.224 269.215 148.79 273.444L100 357.933H148.402C153.306 357.933 157.821 355.325 160.255 351.095L209.01 266.642L257.765 351.095C260.199 355.325 264.715 357.933 269.618 357.933H318.02H317.985Z" fill="#FF6A13"/>
<path d="M219.382 426.878L373.16 426.948C378.064 426.948 382.579 424.34 385.014 420.11L409.215 378.236H353.052L377.252 336.362C379.687 332.132 379.687 326.915 377.252 322.686L328.392 238.268L304.191 280.142C301.757 284.371 301.757 289.588 304.191 293.818L353.016 378.236H255.436C250.533 378.201 246.017 380.809 243.583 385.039L219.382 426.913V426.878Z" fill="#FF6A13"/>
<path d="M208.94 307.071L131.998 440.095C129.563 444.325 129.563 449.542 131.998 453.771L156.198 495.646L184.315 447.039L208.516 488.913C210.95 493.143 215.466 495.751 220.37 495.751H317.985L293.784 453.842C291.35 449.612 286.834 447.004 281.931 447.004H184.351L233.176 362.621C235.61 358.391 235.61 353.175 233.176 348.945L208.975 307.071H208.94Z" fill="#FF6A13"/>
<path d="M928.583 347.676L879.334 443.514H927.348C932.887 443.514 937.931 440.412 940.436 435.513L989.685 339.675H941.671C936.132 339.675 931.087 342.777 928.583 347.676Z" fill="#F1F5F9"/>
<path d="M961.25 284.371H1009.26C1014.8 284.371 1019.85 287.473 1022.35 292.372L1100.04 443.514H1052.02C1046.48 443.514 1041.44 440.412 1038.93 435.513L961.25 284.371Z" fill="#F1F5F9"/>
<path d="M869.386 284.371V443.514H812.517V382.641H712.926V443.514H656.269V284.371H712.926V343.869H812.517V284.371H869.386Z" fill="#F1F5F9"/>
<path d="M634.114 320.289V284.442L540.874 284.336H434.862V396.071C434.862 422.26 454.195 443.479 478.043 443.479L634.114 443.585V407.738L518.331 407.632C508.1 407.632 500.727 406.081 496.211 403.015C491.695 399.948 489.438 394.802 489.438 387.576V378.095L631.821 378.2V347.782L489.438 347.676V320.183L634.114 320.289Z" fill="#F1F5F9"/>
<path d="M448.727 468.188H437.155V538.083H448.727V468.188Z" fill="#A8B8CB"/>
<path d="M501.221 488.948C498.222 487.503 494.553 486.798 490.214 486.798C485.487 486.798 481.536 487.644 478.325 489.301C475.538 490.746 473.422 492.931 471.94 495.822V487.715H461.674V538.048H472.398V510.379C472.398 507.453 472.928 504.916 473.951 502.766C474.974 500.615 476.561 498.924 478.749 497.69C480.936 496.456 483.688 495.822 487.039 495.822C491.519 495.822 494.73 496.879 496.705 499.029C498.681 501.179 499.633 504.387 499.633 508.687V538.048H510.464V506.995C510.464 502.413 509.688 498.606 508.1 495.575C506.513 492.579 504.22 490.323 501.256 488.913L501.221 488.948Z" fill="#A8B8CB"/>
<path d="M562.146 494.764C560.665 492.544 558.583 490.711 555.867 489.371C552.41 487.68 548.211 486.798 543.237 486.798C535.229 486.798 529.02 489.054 524.681 493.601C520.342 498.148 518.154 504.563 518.154 512.882C518.154 518.345 519.142 523.033 521.082 526.945C523.058 530.858 525.88 533.854 529.62 535.898C533.359 537.943 537.84 538.965 543.061 538.965C548.282 538.965 552.304 538.048 555.832 536.215C558.901 534.629 561.159 532.479 562.64 529.765V538.048H572.906V468.152H562.182V494.764H562.146ZM554.879 528.109C552.41 529.342 549.305 529.977 545.636 529.977C541.967 529.977 538.827 529.377 536.358 528.144C533.888 526.945 532.089 525.042 530.96 522.504C529.796 519.966 529.232 516.759 529.232 512.917C529.232 509.075 529.796 505.797 530.96 503.259C532.125 500.756 533.924 498.888 536.358 497.655C538.827 496.456 541.897 495.822 545.636 495.822C551.245 495.822 555.408 497.232 558.195 500.051C560.947 502.871 562.358 507.136 562.358 512.882C562.358 516.688 561.723 519.825 560.488 522.398C559.254 524.936 557.384 526.84 554.879 528.073V528.109Z" fill="#A8B8CB"/>
<path d="M621.379 515.419C621.379 518.345 620.85 520.883 619.826 522.998C618.803 525.148 617.216 526.84 615.064 528.073C612.912 529.307 610.09 529.941 606.632 529.941C602.223 529.941 599.012 528.884 597.072 526.734C595.096 524.584 594.144 521.376 594.144 517.076V487.715H583.419V518.768C583.419 523.35 584.195 527.157 585.748 530.188C587.3 533.22 589.558 535.44 592.521 536.85C595.484 538.295 599.153 539 603.563 539C608.22 539 612.171 538.154 615.417 536.498C617.921 535.193 619.897 533.325 621.379 530.893V538.084H632.209V487.75H621.379V515.419Z" fill="#A8B8CB"/>
<path d="M684.033 512.177C681.952 511.049 679.2 510.203 675.778 509.568L661.773 507.066C659.48 506.643 657.68 506.149 656.41 505.621C655.14 505.092 654.188 504.457 653.553 503.752C652.918 503.047 652.635 502.202 652.635 501.179C652.635 499.734 653.129 498.606 654.082 497.725C655.034 496.844 656.446 496.174 658.28 495.716C660.115 495.258 662.478 495.011 665.336 495.011C668.193 495.011 670.592 495.293 672.321 495.786C674.049 496.315 675.39 497.126 676.272 498.219C677.189 499.311 677.718 500.756 677.895 502.554H688.337C688.337 499.065 687.49 496.139 685.832 493.777C684.139 491.416 681.599 489.653 678.177 488.525C674.755 487.362 670.416 486.798 665.124 486.798C659.832 486.798 655.811 487.327 652.283 488.42C648.755 489.512 646.109 491.134 644.345 493.284C642.581 495.434 641.699 498.183 641.699 501.532C641.699 505.374 642.828 508.44 645.121 510.661C647.379 512.882 650.942 514.468 655.811 515.314L670.098 517.816C672.391 518.239 674.191 518.733 675.496 519.226C676.801 519.72 677.754 520.354 678.389 521.094C679.024 521.834 679.306 522.786 679.306 523.879C679.306 525.5 678.777 526.804 677.754 527.791C676.731 528.778 675.108 529.518 672.956 530.012C670.769 530.505 668.087 530.752 664.842 530.752C661.596 530.752 658.809 530.47 656.869 529.871C654.893 529.272 653.447 528.355 652.494 527.122C651.542 525.888 650.977 524.161 650.872 522.011H640.429C640.5 525.923 641.382 529.131 643.075 531.598C644.768 534.101 647.45 535.934 651.048 537.132C654.646 538.33 659.303 538.965 664.948 538.965C670.592 538.965 675.214 538.401 678.988 537.238C682.763 536.074 685.55 534.383 687.42 532.127C689.29 529.871 690.207 526.91 690.207 523.315C690.207 520.636 689.678 518.38 688.655 516.547C687.632 514.714 686.079 513.234 683.998 512.106L684.033 512.177Z" fill="#A8B8CB"/>
<path d="M719.135 528.461C718.218 528.038 717.583 527.368 717.265 526.487C716.948 525.606 716.807 524.513 716.807 523.139V495.928H731.447V487.715H716.807V472.805H706.082V487.715H695.075V495.928H706.082V523.808C706.082 527.227 706.505 529.977 707.387 532.021C708.269 534.066 709.716 535.581 711.727 536.603C713.737 537.59 716.524 538.084 720.088 538.084H731.659V529.131H723.157C721.428 529.131 720.088 528.919 719.135 528.461Z" fill="#A8B8CB"/>
<path d="M759.352 488.384C757.059 489.301 755.049 490.676 753.39 492.473C752.438 493.495 751.627 494.658 750.956 495.892V487.715H740.337V538.048H751.062V510.731C751.062 507.489 751.768 504.845 753.214 502.73C754.66 500.615 756.565 499.064 759 498.078C761.434 497.091 764.15 496.597 767.22 496.597H772.829V487.01H766.867C764.186 487.01 761.716 487.468 759.388 488.42L759.352 488.384Z" fill="#A8B8CB"/>
<path d="M790.397 468.188H779.673V479.185H790.397V468.188Z" fill="#FF6A13"/>
<path d="M790.397 487.75H779.673V538.084H790.397V487.75Z" fill="#A8B8CB"/>
<path d="M838.658 488.666C835.06 487.433 830.509 486.798 825.041 486.798C819.572 486.798 815.092 487.433 811.6 488.666C808.107 489.9 805.496 491.803 803.732 494.341C801.969 496.879 801.016 500.157 800.875 504.14H811.423C811.494 501.92 811.988 500.122 812.905 498.818C813.822 497.514 815.268 496.562 817.244 495.927C819.22 495.293 821.795 495.011 825.041 495.011C828.286 495.011 830.897 495.328 832.872 495.998C834.848 496.668 836.33 497.655 837.317 499.029C838.27 500.404 838.764 502.237 838.764 504.528V507.559L814.88 509.498C811.388 509.815 808.424 510.59 806.026 511.824C803.591 513.058 801.757 514.75 800.522 516.865C799.287 518.979 798.652 521.482 798.652 524.408C798.652 527.509 799.428 530.188 800.945 532.409C802.462 534.629 804.72 536.321 807.719 537.379C810.718 538.471 814.351 539 818.62 539C822.889 539 826.734 538.436 829.909 537.273C833.084 536.11 835.659 534.453 837.635 532.233C838.164 531.633 838.693 530.964 839.117 530.294V538.048H849.277V503.858C849.277 500.016 848.395 496.809 846.666 494.306C844.938 491.803 842.256 489.9 838.658 488.666ZM836.824 524.513C835.554 526.593 833.648 528.179 831.073 529.236C828.533 530.294 825.323 530.823 821.477 530.823C817.385 530.823 814.351 530.223 812.376 529.06C810.4 527.897 809.448 526.064 809.448 523.562C809.448 521.341 810.188 519.614 811.67 518.38C813.152 517.182 815.445 516.477 818.479 516.265L838.729 514.538V516.653C838.729 519.825 838.094 522.434 836.824 524.513Z" fill="#A8B8CB"/>
<path d="M870.55 468.188H859.825V538.083H870.55V468.188Z" fill="#A8B8CB"/>
</g>
<defs>
<clipPath id="clip0_71_1430">
<rect width="1000" height="321" fill="white" transform="translate(100 218)"/>
</clipPath>
</defs>
</svg>
